<?xml version="1.0" encoding="utf-8" ?>
<svg baseProfile="full" height="200mm" version="1.1" viewBox="0,0,200,200" width="200mm" xmlns="http://www.w3.org/2000/svg" xmlns:ev="http://www.w3.org/2001/xml-events" xmlns:xlink="http://www.w3.org/1999/xlink"><defs /><rect fill="#1a1a1a" height="200" width="200" x="0" y="0" /><text alignment-baseline="middle" fill="#e1ed5e" style="dominant-baseline: central; font-size:9.0px; font-family:Arial;" text-anchor="middle" x="100.0" y="100.0">2024</text><line stroke="#e1ed5e" stroke-width="0.3" x1="100.0" x2="100.0" y1="15.0" y2="10.0" /><path d="M 100.0 14.0 a86.0,86.0 0 0,1 42.35913384403234,11.155469271406648" fill="none" id="id97" stroke="none" /><text fill="#e1ed5e" style="font-size:6.75px; font-family:Arial;" text-anchor="middle"><textPath startOffset="22.145653131862478" xlink:href="#id97">January</textPath></text><line stroke="#e1ed5e" stroke-width="0.3" x1="143.13028292997686" x2="145.6673583964461" y1="26.7553504044142" y2="22.446841604673864" /><path d="M 143.63769802327073 25.89364864446614 a86.0,86.0 0 0,1 29.32050498858742,28.57503671076993" fill="none" id="id98" stroke="none" /><text fill="#e1ed5e" style="font-size:6.75px; font-family:Arial;" text-anchor="middle"><textPath startOffset="20.669276256404974" xlink:href="#id98">February</textPath></text><line stroke="#e1ed5e" stroke-width="0.3" x1="172.87174338648825" x2="177.1583165268699" y1="56.24261187166439" y2="53.66864786411523" /><path d="M 173.72905801456457 55.72781907015455 a86.0,86.0 0 0,1 12.242430191666344,42.057860355516425" fill="none" id="id99" stroke="none" /><text fill="#e1ed5e" style="font-size:6.75px; font-family:Arial;" text-anchor="middle"><textPath startOffset="22.145653131862474" xlink:href="#id99">March</textPath></text><line stroke="#e1ed5e" stroke-width="0.3" x1="184.99686870605535" x2="189.99668451229388" y1="99.2704041080226" y2="99.22748670261217" /><path d="M 185.99683186730306 99.26182062694052 a86.0,86.0 0 0,1 -10.086455211305974,41.156179273409016" fill="none" id="id100" stroke="none" /><text fill="#e1ed5e" style="font-size:6.75px; font-family:Arial;" text-anchor="middle"><textPath startOffset="21.40746469413373" xlink:href="#id100">April</textPath></text><path d="M 119.94978838288452 106.5578916946017 l 58.786066481232545 19.32414769202864 a82.88072637226577,82.88072637226577 0 0,0 -0.45590153174611675,1.3477918702140024 l -58.445679527914066 -20.330441236716805" fill="red" stroke="none" /><path d="M 119.58574465831526 107.57618678355244 l 57.87846788303036 22.388634748258703 a83.05777961205118,83.05777961205118 0 0,0 -0.5258005369522714,1.3253608314523009 l -57.48560867111197 -23.37889659692457" fill="red" stroke="none" /><path d="M 119.0197475246899 108.90220220490707 l 39.24778335536726 18.36994434706946 a64.33408997111019,64.33408997111019 0 0,0 -0.47674851522752154,0.9962210356963733 l -38.926655582179826 -19.040977884830934" fill="red" stroke="none" /><path d="M 118.5362547648365 109.86951160357373 l 55.608764294509484 29.608534810721164 a84.0,84.0 0 0,0 -0.6886186015386442,1.2669806661015868 l -55.092300343355504 -30.558770310297355" fill="red" stroke="none" /><line stroke="#e1ed5e" stroke-width="0.3" x1="174.33088141563837" x2="178.70328620479359" y1="141.23008692659167" y2="143.65538615756765" /><path d="M 175.20536237346943 141.71514677278685 a86.0,86.0 0 0,1 -30.301960400862466,31.631185727798858" fill="none" id="id101" stroke="none" /><text fill="#e1ed5e" style="font-size:6.75px; font-family:Arial;" text-anchor="middle"><textPath startOffset="22.145653131862474" xlink:href="#id101">May</textPath></text><line stroke="#e1ed5e" stroke-width="0.3" x1="143.1302829299769" x2="145.66735839644613" y1="173.24464959558577" y2="177.55315839532614" /><path d="M 143.63769802327073 174.10635135553383 a86.0,86.0 0 0,1 -40.68552437913181,11.842963189579606" fill="none" id="id102" stroke="none" /><text fill="#e1ed5e" style="font-size:6.75px; font-family:Arial;" text-anchor="middle"><textPath startOffset="21.407464694133747" xlink:href="#id102">June</textPath></text><path d="M 104.9986988182912 120.39639698878246 l 0.8006730154231839 3.2670191332630587 a24.36370202228642,24.36370202228642 0 0,0 -0.40706855502299943,0.09606707059521803 l -0.7444723066603053 -3.2802823475045018" fill="red" stroke="none" /><line stroke="#e1ed5e" stroke-width="0.3" x1="101.45913802915013" x2="101.54496967792366" y1="184.9874750549273" y2="189.98673829345242" /><path d="M 101.47630435890484 185.9873277026323 a86.0,86.0 0 0,1 -42.54439059252881,-10.42667462771756" fill="none" id="id103" stroke="none" /><text fill="#e1ed5e" style="font-size:6.75px; font-family:Arial;" text-anchor="middle"><textPath startOffset="22.145653131862474" xlink:href="#id103">July</textPath></text><line stroke="#e1ed5e" stroke-width="0.3" x1="58.13341422392154" x2="55.67067388415222" y1="173.97424548756322" y2="178.32567169271397" /><path d="M 57.64086615596768 174.84453072859336 a86.0,86.0 0 0,1 -31.369924170532247,-30.572349798747897" fill="none" id="id104" stroke="none" /><text fill="#e1ed5e" style="font-size:6.75px; font-family:Arial;" text-anchor="middle"><textPath startOffset="22.145653131862474" xlink:href="#id104">August</textPath></text><path d="M 88.1277618465304 117.32195027204791 l -18.94826288629337 27.646081826798955 a54.516302104828725,54.516302104828725 0 0,0 -0.767394595868636,-0.5357010267840554 l 19.420052573335774 -27.31673598420977" fill="red" stroke="none" /><path d="M 87.83215693770417 117.11559508785305 l -19.074982559010895 26.831351794760018 a53.92075938918696,53.92075938918696 0 0,0 -0.749804079842834,-0.5428003305644127 l 19.532767649227683 -26.49995069282254" fill="red" stroke="none" /><path d="M 82.37810715431573 111.42229804090323 l -22.303471123064924 14.456840519077259 a47.57903425505571,47.57903425505571 0 0,0 -0.43836673227995404,-0.6891853139229994 l 22.548355546970765 -14.071841530475588" fill="red" stroke="none" /><line stroke="#e1ed5e" stroke-width="0.3" x1="26.387840678322732" x2="22.057713659400548" y1="142.50000000000003" y2="145.00000000000006" /><path d="M 25.521815274538298 143.00000000000003 a86.0,86.0 0 0,1 -11.493303480769221,-40.785679425670985" fill="none" id="id105" stroke="none" /><text fill="#e1ed5e" style="font-size:6.75px; font-family:Arial;" text-anchor="middle"><textPath startOffset="21.40746469413373" xlink:href="#id105">September</textPath></text><path d="M 81.81346652052679 110.50000000000001 l -3.8271496150940245 2.20960586050351 a25.419211721007017,25.419211721007017 0 0,0 -0.21493351852896928,-0.3797669327087147 l 3.864516498644372 -2.143582157695674" fill="red" stroke="none" /><path d="M 81.63589988554817 110.18625677009913 l -18.982336136228376 10.529181869782324 a42.70697482459761,42.70697482459761 0 0,0 -0.3501049676150248,-0.6441537072673233 l 19.16028645345873 -10.201773329040412" fill="red" stroke="none" /><path d="M 81.4637452351635 109.86951160357371 l -11.086125130269528 5.9027372033872885 a33.55963681386711,33.55963681386711 0 0,0 -0.26638669833347095,-0.5108316184571929 l 11.185819897577948 -5.711559341825593" fill="red" stroke="none" /><path d="M 81.1358732173502 109.22738970284198 l -13.707939543432518 6.705240144303244 a36.26000825423029,36.26000825423029 0 0,0 -0.26870520909062073,-0.5614905409186571 l 13.82102401048305 -6.468937101319482" fill="red" stroke="none" /><path d="M 79.83685265289637 105.86919833188381 l -37.82388179604954 11.009980739670246 a60.3937267849773,60.3937267849773 0 0,0 -0.2812090321081527,-0.9979116495406919 l 38.00730932023227 -10.359061166226558" fill="red" stroke="none" /><line stroke="#e1ed5e" stroke-width="0.3" x1="15.003131293944662" x2="10.003315487706104" y1="100.72959589197737" y2="100.7725132973878" /><path d="M 14.003168132696942 100.73817937305945 a86.0,86.0 0 0,1 10.791469493833604,-42.45332614584628" fill="none" id="id106" stroke="none" /><text fill="#e1ed5e" style="font-size:6.75px; font-family:Arial;" text-anchor="middle"><textPath startOffset="22.145653131862435" xlink:href="#id106">October</textPath></text><line stroke="#e1ed5e" stroke-width="0.3" x1="26.387840678322718" x2="22.05771365940052" y1="57.49999999999999" y2="54.99999999999999" /><path d="M 25.521815274538284 56.99999999999999 a86.0,86.0 0 0,1 29.574782752854787,-30.34633250058573" fill="none" id="id107" stroke="none" /><text fill="#e1ed5e" style="font-size:6.75px; font-family:Arial;" text-anchor="middle"><textPath startOffset="21.40746469413373" xlink:href="#id107">November</textPath></text><line stroke="#e1ed5e" stroke-width="0.3" x1="56.869717070023135" x2="54.33264160355391" y1="26.7553504044142" y2="22.446841604673864" /><path d="M 56.362301976729285 25.89364864446614 a86.0,86.0 0 0,1 42.16139366436587,-11.88097634709845" fill="none" id="id108" stroke="none" /><text fill="#e1ed5e" style="font-size:6.75px; font-family:Arial;" text-anchor="middle"><textPath startOffset="22.145653131862474" xlink:href="#id108">December</textPath></text></svg>