<?xml version="1.0" encoding="utf-8" ?>
<svg baseProfile="full" height="200mm" version="1.1" viewBox="0,0,200,200" width="200mm" xmlns="http://www.w3.org/2000/svg" xmlns:ev="http://www.w3.org/2001/xml-events" xmlns:xlink="http://www.w3.org/1999/xlink"><defs /><rect fill="#1a1a1a" height="200" width="200" x="0" y="0" /><text alignment-baseline="middle" fill="#e1ed5e" style="dominant-baseline: central; font-size:9.0px; font-family:Arial;" text-anchor="middle" x="100.0" y="100.0">2025</text><line stroke="#e1ed5e" stroke-width="0.3" x1="100.0" x2="100.0" y1="15.0" y2="10.0" /><path d="M 100.0 14.0 a86.0,86.0 0 0,1 42.46469731375804,11.215312516191453" fill="none" id="id109" stroke="none" /><text fill="#e1ed5e" style="font-size:6.75px; font-family:Arial;" text-anchor="middle"><textPath startOffset="22.20632615414155" xlink:href="#id109">January</textPath></text><path d="M 100.72285384407766 79.0124445844662 l 0.05563063800878711 -1.61519663701959 a22.616154368903125,22.616154368903125 0 0,0 0.38895388030606837,0.016749172272200415 l -0.08342535070418701 1.6139997382231948" fill="#ff0901" stroke="none" /><path d="M 101.44485096284872 79.0497635885617 l 0.3922212783547912 -5.687180697812773 a26.700689591686995,26.700689591686995 0 0,0 0.4582471656968961,0.035568799557839904 l -0.49005863341402844 5.6795866360664675" fill="#ff4406" stroke="none" /><path d="M 102.16513564639614 79.11191278185805 l 0.3891216822240623 -3.7540408381781507 a24.774153984442897,24.774153984442897 0 0,0 0.42379528588519505,0.04761833829307396 l -0.4536836716189826 3.7467865464144756" fill="#ff2803" stroke="none" /><path d="M 102.52436894288641 79.15227682838746 l 0.4539228841605111 -3.7487621042500354 a24.776143972232223,24.776143972232223 0 0,0 0.4229467951625886,0.0549106326664026 l -0.5183844078309457 3.7403931484194963" fill="#ff2903" stroke="none" /><path d="M 102.88285421437855 79.19881850522331 l 0.1330011339221457 -0.9596672325388563 a21.96883976943216,21.96883976943216 0 0,0 0.37413040788292945,0.055137096782521045 l -0.14950052223373095 0.9572356515953664" fill="#ff0000" stroke="none" /><path d="M 103.2404852339499 79.25152402106235 l 0.8766310551965932 -5.6129736993019925 a26.68101714096965,26.68101714096965 0 0,0 0.45315902689009163,0.07477512225323786 l -0.97311928822556 5.5970523141091295" fill="#ff4306" stroke="none" /><path d="M 103.95276090670814 79.375362276772 l 1.0699719850108484 -5.582878672828714 a26.684485405402476,26.684485405402476 0 0,0 0.45037514160756625,0.09034101649712323 l -1.16591353608554 5.563633700254383" fill="#ff4306" stroke="none" /><path d="M 105.71112130821622 79.79150937346287 l 1.314945366173205 -4.652862314181755 a25.835101760123894,25.835101760123894 0 0,0 0.42690633508922365,0.12462566575504262 l -1.3948419189858556 4.629538319508009" fill="#ff3805" stroke="none" /><path d="M 106.0581310904928 79.89281104454417 l 0.702997702819071 -2.3332786027059425 a23.436882190015407,23.436882190015407 0 0,0 0.3852740261928083,0.11970651535596706 l -0.7430571017225975 2.3208319524674548" fill="#ff1502" stroke="none" /><path d="M 107.76421540070413 80.48803036053334 l 1.2470917171747393 -3.13402120720879 a24.37302930290863,24.37302930290863 0 0,0 0.3884783835561152,0.15847008676384755 l -1.3008539703192419 3.112090234261363" fill="#ff2303" stroke="none" /><path d="M 108.09893153111575 80.62456947434976 l 0.8811599965828703 -2.1080378603252083 a23.28479026611687,23.28479026611687 0 0,0 0.36847209532745734,0.15776052144526295 l -0.9173158497006428 2.0925578109171545" fill="#ff1302" stroke="none" /><path d="M 108.76106565485865 80.91482961587045 l 2.373381127952675 -5.170191047288207 a26.68892023533298,26.68892023533298 0 0,0 0.4158664865660958,0.19525489160356949 l -2.4620258258183685 5.128571173044635" fill="#ff4406" stroke="none" /><line stroke="#e1ed5e" stroke-width="0.3" x1="143.23703022742887" x2="145.7803849466894" y1="26.81831364943548" y2="22.513508569990506" /><path d="M 143.74570117128098 25.957352633546492 a86.0,86.0 0 0,1 28.547481713284135,27.462654790039103" fill="none" id="id110" stroke="none" /><text fill="#e1ed5e" style="font-size:6.75px; font-family:Arial;" text-anchor="middle"><textPath startOffset="19.985693538727396" xlink:href="#id110">February</textPath></text><path d="M 117.65298651832404 88.62581576622439 l 1.5652819108082385 -1.008543501285102 a22.862060002869914,22.862060002869914 0 0,0 0.21030090883445593,0.33264553390361257 l -1.58241041588865 0.9814503196672832" fill="#ff0d01" stroke="none" /><line stroke="#e1ed5e" stroke-width="0.3" x1="172.23445277983987" x2="176.4835382374775" y1="55.19839476539836" y2="52.563006222186495" /><path d="M 173.08426987136738 54.67131705675599 a86.0,86.0 0 0,1 12.851231095245387,41.99856678651699" fill="none" id="id111" stroke="none" /><text fill="#e1ed5e" style="font-size:6.75px; font-family:Arial;" text-anchor="middle"><textPath startOffset="22.20632615414155" xlink:href="#id111">March</textPath></text><line stroke="#e1ed5e" stroke-width="0.3" x1="184.98032266829074" x2="189.97916517819016" y1="98.17113171792111" y2="98.06355123074" /><path d="M 185.9800911702706 98.14961562048488 a86.0,86.0 0 0,1 -9.607161424134198,41.387399972396054" fill="none" id="id112" stroke="none" /><text fill="#e1ed5e" style="font-size:6.75px; font-family:Arial;" text-anchor="middle"><textPath startOffset="21.466115282336823" xlink:href="#id112">April</textPath></text><path d="M 120.99824983174949 100.27111621757518 l 4.710420203005214 0.0608179881114458 a25.71081280848195,25.71081280848195 0 0,0 -0.009522718587708572,0.4424833139666351 l -4.708675421732497 -0.14189111786819572" fill="#ff3605" stroke="none" /><path d="M 120.9904718944345 100.63252640178507 l 38.21242354976765 1.1514923005532927 a59.22976913434177,59.22976913434177 0 0,0 -0.03948049712363913,1.018816203115799 l -38.18694091979281 -1.809085750683098" fill="#38ff2e" stroke="none" /><path d="M 120.89721153311464 102.0752229133903 l 22.445878171130218 2.229015130467696 a43.55628416484138,43.55628416484138 0 0,0 -0.0805121288783486,0.7454423206607241 l -22.404183740750817 -2.6150537730132117" fill="#e1ff1b" stroke="none" /><path d="M 120.81339534386255 102.79330883721812 l 22.347228677280523 2.999160411854135 a43.54758507536233,43.54758507536233 0 0,0 -0.1061025483960096,0.7420809763588931 l -22.292292077867913 -3.3833868601934376" fill="#e1ff1b" stroke="none" /><path d="M 120.76222939487914 103.15116336523771 l 22.176999136804305 3.365888407342332 a43.430971790907776,43.430971790907776 0 0,0 -0.11854224330662881,0.7381626622277853 l -22.11577513913639 -3.747130299263322" fill="#e2ff1b" stroke="none" /><path d="M 120.64145759157962 103.86396538481128 l 61.924372774738885 11.591896154433844 a84.0,84.0 0 0,0 -0.2782802680973435,1.4189450917282203 l -61.715662573665874 -12.656104973230008" fill="#4dd2ff" stroke="none" /><path d="M 120.41448212921028 104.9243191809786 l 21.96197425902146 5.297600517679225 a43.59187651787333,43.59187651787333 0 0,0 -0.18223207366267136,0.7279265487259315 l -21.867530871063728 -5.674854905802552" fill="#e0ff1b" stroke="none" /><path d="M 120.32669344350535 105.2749913415812 l 27.428865415211803 7.11807987741695 a49.33742612001115,49.33742612001115 0 0,0 -0.2204018501268425,0.8201972758227345 l -27.302275488743184 -7.589168086415232" fill="#9fff22" stroke="none" /><path d="M 119.9155931802556 106.66101706037122 l 26.59438510357474 8.894821825373324 a49.04245307283897,49.04245307283897 0 0,0 -0.27465915020962806,0.7982880556075419 l -26.43733512242188 -9.351282584070166" fill="#a2ff22" stroke="none" /><path d="M 119.79798401119884 107.00284435728193 l 26.580024647607576 9.401754012662323 a49.19380585841575,49.19380585841575 0 0,0 -0.2892495967777758,0.795890662573783 l -26.41425078982457 -9.857892472242236" fill="#a0ff22" stroke="none" /><path d="M 119.26925614724726 108.34839909993367 l 1.0612596989495127 0.4597904271863483 a22.156580903156634,22.156580903156634 0 0,0 -0.1546306887252586,0.3486513817658313 l -1.0531879254929812 -0.47799014544486734" fill="#ff0300" stroke="none" /><path d="M 119.12269723197855 108.67885076344098 l 17.61814305270286 7.996007698519746 a40.3477415669191,40.3477415669191 0 0,0 -0.2924738295081773,0.6299626090672649 l -17.477894606354848 -8.298090374865842" fill="#fff717" stroke="none" /><path d="M 118.97047184881838 109.00673069616215 l 20.082457303028125 9.534675051154073 a43.23094958968347,43.23094958968347 0 0,0 -0.3249459336278566,0.6694848690796908 l -19.915358112785555 -9.878948876199038" fill="#e5ff1a" stroke="none" /><line stroke="#e1ed5e" stroke-width="0.3" x1="174.80103733775053" x2="179.2010983576182" y1="140.37084112569926" y2="142.7455964860345" /><path d="M 175.68104954172406 140.8457921977663 a86.0,86.0 0 0,1 -30.038265399797805,32.042727171017184" fill="none" id="id113" stroke="none" /><text fill="#e1ed5e" style="font-size:6.75px; font-family:Arial;" text-anchor="middle"><textPath startOffset="22.206326154141568" xlink:href="#id113">May</textPath></text><path d="M 118.48025628344425 109.97397251340804 l 3.5245924406852676 1.9022565263802065 a25.005163138386727,25.005163138386727 0 0,0 -0.20769001604038917,0.37701770675646207 l -3.4913260151933687 -1.9626447515344736" fill="#ff2c04" stroke="none" /><path d="M 117.14729908036423 112.12312394758627 l 24.454059930027306 17.28899683641178 a50.94846337745601,50.94846337745601 0 0,0 -0.5124450006062026,0.7117412861356834 l -24.152835137045503 -17.707371727998595" fill="#8dff24" stroke="none" /><path d="M 116.71984013943494 112.70617746262583 l 44.58793039228195 33.88442422480536 a77.00212265364195,77.00212265364195 0 0,0 -0.8110640281297017,1.0484095888888882 l -43.99805954693418 -34.6469118078075" fill="#44ffea" stroke="none" /><path d="M 116.27256486870786 113.27417163493432 l 17.656320388274377 14.402955475448353 a43.78575818534773,43.78575818534773 0 0,0 -0.48144317679480075,0.579929320856812 l -17.405781211586035 -14.704746053418935" fill="#deff1b" stroke="none" /><path d="M 116.0416608686014 113.55231037782055 l 4.306221464793709 3.637980526115279 a26.637237409604467,26.637237409604467 0 0,0 -0.298917358091179,0.34770841852589723 l -4.242961597131751 -3.7115660438027045" fill="#ff4306" stroke="none" /><path d="M 115.32070863581623 114.36230785411682 l 22.084445452343587 20.702932998314953 a51.271011969708866,51.271011969708866 0 0,0 -0.6091324566958598,0.6386729455661396 l -21.72480644426876 -21.0800130604636" fill="#8aff24" stroke="none" /><path d="M 115.07121518719521 114.62390073753431 l 4.113165494111162 3.9910865285791934 a26.731221690054664,26.731221690054664 0 0,0 -0.32326877866229486,0.32746956606080024 l -4.043856090393332 -4.0612965886206585" fill="#ff4406" stroke="none" /><path d="M 114.29624159901734 115.38237550388516 l 3.893457532587213 4.189256690989561 a26.71916804973074,26.71916804973074 0 0,0 -0.33958847573065276,0.3102060210149056 l -3.8207695073896963 -4.25565547859105" fill="#ff4406" stroke="none" /><path d="M 113.75828350139079 115.86535959552629 l 20.067852750527997 23.141237071107984 a51.63063119163718,51.63063119163718 0 0,0 -0.6764461479493968,0.576482082468251 l -19.66654112600155 -23.48324354379918" fill="#86ff25" stroke="none" /><line stroke="#e1ed5e" stroke-width="0.3" x1="143.8653032363475" x2="146.44561519142675" y1="172.8068346515853" y2="177.08958963109032" /><path d="M 144.38136562736335 173.6633856474863 a86.0,86.0 0 0,1 -40.68145358897372,12.25698825130547" fill="none" id="id114" stroke="none" /><text fill="#e1ed5e" style="font-size:6.75px; font-family:Arial;" text-anchor="middle"><textPath startOffset="21.466115282336833" xlink:href="#id114">June</textPath></text><path d="M 109.57404056367764 118.69057910512821 l 10.342117358097902 20.19002962337532 a43.684723662443915,43.684723662443915 0 0,0 -0.672216559308438,0.3370633378241089 l -9.993046891106703 -20.36506080210873" fill="#dfff1b" stroke="none" /><path d="M 108.59647513512805 119.15986991738527 l 9.903091689148642 22.07206390543476 a45.19188355728592,45.19188355728592 0 0,0 -0.7124808723376939,0.3123306765500803 l -9.521690142153194 -22.239259135279294" fill="#ceff1d" stroke="none" /><path d="M 103.41894727170886 120.7198165907248 l 5.131424701778706 31.097928754200257 a52.51845002964676,52.51845002964676 0 0,0 -0.8932241356884777,0.13950323991238758 l -4.595364702481711 -31.18165030145975" fill="#7cff26" stroke="none" /><path d="M 100.90346689309514 120.98055641714683 l 1.1965177587898574 27.785864135438853 a48.811614489277076,48.811614489277076 0 0,0 -0.8397449008037366,0.02892251229704171 l -0.7180525063114686 -27.802343446161988" fill="#a5ff21" stroke="none" /><line stroke="#e1ed5e" stroke-width="0.3" x1="102.19456741930631" x2="102.32365962044197" y1="184.97166512339345" y2="189.96999836594603" /><path d="M 102.22038585953345 185.97133177190398 a86.0,86.0 0 0,1 -42.740103519485714,-10.115201625700543" fill="none" id="id115" stroke="none" /><text fill="#e1ed5e" style="font-size:6.75px; font-family:Arial;" text-anchor="middle"><textPath startOffset="22.20632615414155" xlink:href="#id115">July</textPath></text><path d="M 99.81925306533755 120.99922214144158 l -0.2695028018579559 31.31090004112756 a52.3120598674966,52.3120598674966 0 0,0 -0.9003660543267281,-0.015500618147593223 l 0.8084285460773519 -31.30162194570081" fill="#7fff26" stroke="none" /><path d="M 98.73552117531835 120.96189622390904 l -1.8485508267306925 30.644349148595435 a51.70005333708768,51.70005333708768 0 0,0 -0.8878554525271126,-0.061231710242367926 l 2.3757690400367353 -30.607989093836782" fill="#85ff25" stroke="none" /><path d="M 98.01472825383883 120.90594882070398 l -2.861653209559196 30.134703552463108 a51.27027283138712,51.27027283138712 0 0,0 -0.8778628034906981,-0.09099406894625 l 3.3799486096554876 -30.080980115061095" fill="#8aff24" stroke="none" /><path d="M 96.58105272829116 120.7198165907248 l -5.261582946656829 31.88672564029493 a53.31791340981023,53.31791340981023 0 0,0 -0.9042490333270521,-0.15721528517282649 l 5.809680951455931 -31.791431776601097" fill="#74ff27" stroke="none" /><path d="M 95.86986931433489 120.58985236759428 l -6.753729644543566 33.6692242679976 a55.33991157414802,55.33991157414802 0 0,0 -0.932368249460775,-0.19538683192119702 l 7.332289355433727 -33.54798145534986" fill="#5fff29" stroke="none" /><path d="M 90.10565033884886 118.52300852407294 l -11.848900884998791 22.182083675036942 a46.14838540242426,46.14838540242426 0 0,0 -0.6974497521820804,-0.38030521428965136 l 12.228973449049512 -21.974837808987527" fill="#c3ff1e" stroke="none" /><line stroke="#e1ed5e" stroke-width="0.3" x1="58.666819895761336" x2="56.23545636021788" y1="174.27360380694188" y2="178.64263932499728" /><path d="M 58.180547188652646 175.14741091055294 a86.0,86.0 0 0,1 -31.652253787137756,-30.449443065178592" fill="none" id="id116" stroke="none" /><text fill="#e1ed5e" style="font-size:6.75px; font-family:Arial;" text-anchor="middle"><textPath startOffset="22.20632615414155" xlink:href="#id116">August</textPath></text><path d="M 87.65650970185807 116.9893568818739 l -17.08285532455516 23.512533218742455 a50.0630893815876,50.0630893815876 0 0,0 -0.692813628646102,-0.5125269596377695 l 17.48505392361983 -23.21499631036492" fill="#97ff23" stroke="none" /><path d="M 86.24171649860922 115.8653595955263 l -19.533909960080635 22.525521137283146 a50.81564590671695,50.81564590671695 0 0,0 -0.6559033054765088,-0.578758406513353 l 19.91875561846373 -22.185939588997506" fill="#8fff24" stroke="none" /><line stroke="#e1ed5e" stroke-width="0.3" x1="26.63291911575756" x2="22.317208475507996" y1="142.92168965132927" y2="145.44649492493687" /><path d="M 25.769776987707644 143.4266507060508 a86.0,86.0 0 0,1 -11.730757126820373,-40.83630448921669" fill="none" id="id117" stroke="none" /><text fill="#e1ed5e" style="font-size:6.75px; font-family:Arial;" text-anchor="middle"><textPath startOffset="21.46611528233685" xlink:href="#id117">September</textPath></text><line stroke="#e1ed5e" stroke-width="0.3" x1="15.007084014347285" x2="10.007500721073583" y1="101.09737516637583" y2="101.16192664675087" /><path d="M 14.007167355692545 101.11028546245083 a86.0,86.0 0 0,1 10.666146001902534,-42.60595125391555" fill="none" id="id118" stroke="none" /><text fill="#e1ed5e" style="font-size:6.75px; font-family:Arial;" text-anchor="middle"><textPath startOffset="22.20632615414155" xlink:href="#id118">October</textPath></text><path d="M 81.10775173730289 90.83032412892265 l -10.985666229295992 -5.332081028671779 a33.21130421362992,33.21130421362992 0 0,0 0.254050641841799,-0.5121505915727661 l 10.89225557450078 5.520391208743506" fill="#ff9c0e" stroke="none" /><path d="M 81.26839172434947 90.50648371742162 l -20.866008168134396 -10.575268571791542 a44.39287503147429,44.39287503147429 0 0,0 0.35131795548252065,-0.6786344677329197 l 20.680880779491762 10.932875761784796" fill="#d7ff1c" stroke="none" /><line stroke="#e1ed5e" stroke-width="0.3" x1="26.266209847984243" x2="21.928928074336255" y1="57.711370442889674" y2="55.22380399835377" /><path d="M 25.398753493254645 57.213857153982495 a86.0,86.0 0 0,1 29.58750427330803,-30.492523968695096" fill="none" id="id119" stroke="none" /><text fill="#e1ed5e" style="font-size:6.75px; font-family:Arial;" text-anchor="middle"><textPath startOffset="21.46611528233685" xlink:href="#id119">November</textPath></text><line stroke="#e1ed5e" stroke-width="0.3" x1="56.762969772571076" x2="54.21961505331055" y1="26.818313649435495" y2="22.513508569990535" /><path d="M 56.25429882871897 25.957352633546506 a86.0,86.0 0 0,1 42.265352541879196,-11.944610805530505" fill="none" id="id120" stroke="none" /><text fill="#e1ed5e" style="font-size:6.75px; font-family:Arial;" text-anchor="middle"><textPath startOffset="22.20632615414155" xlink:href="#id120">December</textPath></text></svg>