<?xml version="1.0" encoding="utf-8" ?>
<svg baseProfile="full" height="200mm" version="1.1" viewBox="0,0,200,200" width="200mm" xmlns="http://www.w3.org/2000/svg" xmlns:ev="http://www.w3.org/2001/xml-events" xmlns:xlink="http://www.w3.org/1999/xlink"><defs /><rect fill="#1a1a1a" height="200" width="200" x="0" y="0" /><text alignment-baseline="middle" fill="#e1ed5e" style="dominant-baseline: central; font-size:9.0px; font-family:Arial;" text-anchor="middle" x="100.0" y="100.0">2025</text><line stroke="#e1ed5e" stroke-width="0.3" x1="100.0" x2="100.0" y1="15.0" y2="10.0" /><path d="M 100.0 14.0 a86.0,86.0 0 0,1 42.46469731375804,11.215312516191453" fill="none" id="id109" stroke="none" /><text fill="#e1ed5e" style="font-size:6.75px; font-family:Arial;" text-anchor="middle"><textPath startOffset="22.20632615414155" xlink:href="#id109">January</textPath></text><path d="M 100.72285384407766 79.0124445844662 l 0.0375933479745674 -1.091496545720676 a22.092143749298646,22.092143749298646 0 0,0 0.3799419165348539,0.01636109815504256 l -0.05637609689875281 1.0906877210414385" fill="#ff0601" stroke="none" /><path d="M 101.44485096284872 79.0497635885617 l 0.26505018687530274 -3.8432088974666825 a24.852337761818102,24.852337761818102 0 0,0 0.4265250641257143,0.03310655394717066 l -0.33116544036335815 3.8380770813310474" fill="#ff2e04" stroke="none" /><path d="M 102.16513564639614 79.11191278185805 l 0.2629555821737586 -2.5368568219202605 a23.550448621932954,23.550448621932954 0 0,0 0.4028621567753249,0.04526625733161555 l -0.3065844424588088 2.5319546111180444" fill="#ff1b02" stroke="none" /><path d="M 102.52436894288641 79.15227682838746 l 0.3067460943944227 -2.5332896278608747 a23.551793389961993,23.551793389961993 0 0,0 0.4020462403584591,0.05219714080288726 l -0.3503070632607279 2.527634163893851" fill="#ff1b02" stroke="none" /><path d="M 102.88285421437855 79.19881850522331 l 0.08987777396616449 -0.6485114229127652 a21.654709920423887,21.654709920423887 0 0,0 0.3687807613029951,0.05434869793812019 l -0.10102751569781536 0.646868240813676" fill="#ff0000" stroke="none" /><path d="M 103.2404852339499 79.25152402106235 l 0.5923983165196183 -3.793062258545819 a24.839043769302453,24.839043769302453 0 0,0 0.4218743552356349,0.06961288337284194 l -0.6576018778941283 3.782303112233352" fill="#ff2e04" stroke="none" /><path d="M 103.95276090670814 79.375362276772 l 0.7230517318388106 -3.772725033537989 a24.84138750786735,24.84138750786735 0 0,0 0.41926772229675824,0.08410116082678216 l -0.7878858636026942 3.7597199166339985" fill="#ff2e04" stroke="none" /><path d="M 105.71112130821622 79.79150937346287 l 0.8885966526266713 -3.144250691986617 a24.267402091129533,24.267402091129533 0 0,0 0.4010012340981385,0.11706325641110338 l -0.9425881044482369 3.12848910665681" fill="#ff2603" stroke="none" /><path d="M 106.0581310904928 79.89281104454417 l 0.4750626311929845 -1.5767526236043128 a22.646764506418293,22.646764506418293 0 0,0 0.37228544611387265,0.11567090030027365 l -0.5021334500175754 1.5683415884215186" fill="#ff0e01" stroke="none" /><path d="M 107.76421540070413 80.48803036053334 l 0.8427433974880096 -2.1178680313474767 a23.279381809222244,23.279381809222244 0 0,0 0.37104688559796917,0.15135934106787188 l -0.8790741526743663 2.1030478040960254" fill="#ff1702" stroke="none" /><path d="M 108.09893153111575 80.62456947434976 l 0.595458825540992 -1.424542368438241 a22.543985807055975,22.543985807055975 0 0,0 0.35674917370615755,0.15274137820133657 l -0.6198917570374648 1.4140814622741136" fill="#ff0d01" stroke="none" /><path d="M 108.76106565485865 80.91482961587045 l 1.6038525857874038 -3.493844365131997 a24.844384419474924,24.844384419474924 0 0,0 0.387124948042904,0.1817603538849748 l -1.6637557451299056 3.4657190286070194" fill="#ff2e04" stroke="none" /><line stroke="#e1ed5e" stroke-width="0.3" x1="143.23703022742887" x2="145.7803849466894" y1="26.81831364943548" y2="22.513508569990506" /><path d="M 143.74570117128098 25.957352633546492 a86.0,86.0 0 0,1 28.547481713284135,27.462654790039103" fill="none" id="id110" stroke="none" /><text fill="#e1ed5e" style="font-size:6.75px; font-family:Arial;" text-anchor="middle"><textPath startOffset="19.985693538727396" xlink:href="#id110">February</textPath></text><path d="M 117.65298651832404 88.62581576622439 l 1.0577658221718609 -0.6815403912015287 a22.25831865574426,22.25831865574426 0 0,0 0.20474728182160035,0.323861029675687 l -1.0693407002394169 0.6632317138116354" fill="#ff0901" stroke="none" /><line stroke="#e1ed5e" stroke-width="0.3" x1="172.23445277983987" x2="176.4835382374775" y1="55.19839476539836" y2="52.563006222186495" /><path d="M 173.08426987136738 54.67131705675599 a86.0,86.0 0 0,1 12.851231095245387,41.99856678651699" fill="none" id="id111" stroke="none" /><text fill="#e1ed5e" style="font-size:6.75px; font-family:Arial;" text-anchor="middle"><textPath startOffset="22.20632615414155" xlink:href="#id111">March</textPath></text><line stroke="#e1ed5e" stroke-width="0.3" x1="184.98032266829074" x2="189.97916517819016" y1="98.17113171792111" y2="98.06355123074" /><path d="M 185.9800911702706 98.14961562048488 a86.0,86.0 0 0,1 -9.607161424134198,41.387399972396054" fill="none" id="id112" stroke="none" /><text fill="#e1ed5e" style="font-size:6.75px; font-family:Arial;" text-anchor="middle"><textPath startOffset="21.466115282336823" xlink:href="#id112">April</textPath></text><path d="M 120.99824983174949 100.27111621757518 l 6.349196484839339 0.08197683851768352 a27.349725679519516,27.349725679519516 0 0,0 -0.010129735805597366,0.47068901885357023 l -6.346844686348734 -0.19125567316136857" fill="#ff5107" stroke="none" /><path d="M 120.9904718944345 100.63252640178507 l 51.3966801404497 1.548786388244878 a72.42001039222095,72.42001039222095 0 0,0 -0.048272651637371086,1.2457026440548729 l -51.36240535596113 -2.433266279313757" fill="#3fffbb" stroke="none" /><path d="M 120.89721153311464 102.0752229133903 l 30.32979016655703 3.0119365644655383 a51.4789752684657,51.4789752684657 0 0,0 -0.09515692100029087,0.8810349074804015 l -30.27345094405569 -3.533567793830731" fill="#86ff25" stroke="none" /><path d="M 120.81339534386255 102.79330883721812 l 30.191080967803256 4.051862364561318 a51.461762237694,51.461762237694 0 0,0 -0.12538523339284013,0.876944030315542 l -30.116861683393815 -4.5709518668572695" fill="#86ff25" stroke="none" /><path d="M 120.76222939487914 103.15116336523771 l 29.97999482974284 4.550179058362692 a51.323327974590285,51.323327974590285 0 0,0 -0.14008395808779633,0.8723029407332881 l -29.897229117293755 -5.065561228789186" fill="#87ff25" stroke="none" /><path d="M 120.64145759157962 103.86396538481128 l 61.924372774738885 11.591896154433844 a84.0,84.0 0 0,0 -0.2782802680973435,1.4189450917282203 l -61.715662573665874 -12.656104973230008" fill="#4dd2ff" stroke="none" /><path d="M 120.41448212921028 104.9243191809786 l 44.501269742360044 10.734460702123302 a66.77763269597631,66.77763269597631 0 0,0 -0.2791581242317587,1.1150979398773861 l -44.309900303833224 -11.498886481398085" fill="#38ff7e" stroke="none" /><path d="M 120.32669344350535 105.2749913415812 l 55.490085003117905 14.400262332316366 a78.32815267294752,78.32815267294752 0 0,0 -0.3499102228021034,1.3021461088445665 l -55.233986703974026 -15.35329937433648" fill="#46fff7" stroke="none" /><path d="M 119.9155931802556 106.66101706037122 l 35.7688590278265 11.963338378019012 a58.71647837881352,58.71647837881352 0 0,0 -0.328837915812953,0.9557569089688268 l -35.55763028107032 -12.57726799007714" fill="#3cff2e" stroke="none" /><path d="M 119.79798401119884 107.00284435728193 l 35.86570447692083 12.686238461152154 a59.04325700987016,59.04325700987016 0 0,0 -0.3471623710453355,0.9552417448112657 l -35.64201784487027 -13.30172800296955" fill="#38ff2e" stroke="none" /><path d="M 119.12269723197855 108.67885076344098 l 23.80924431006157 10.805843739018972 a47.14663216416781,47.14663216416781 0 0,0 -0.3417578164715227,0.736115932477003 l -23.619711876750216 -11.214079738774805" fill="#b5ff1f" stroke="none" /><path d="M 118.97047184881838 109.00673069616215 l 27.227297966593532 12.926876164366258 a51.140170569035085,51.140170569035085 0 0,0 -0.38439568478524866,0.7919689648985616 l -27.000749025193567 -13.393634085230095" fill="#89ff24" stroke="none" /><line stroke="#e1ed5e" stroke-width="0.3" x1="174.80103733775053" x2="179.2010983576182" y1="140.37084112569926" y2="142.7455964860345" /><path d="M 175.68104954172406 140.8457921977663 a86.0,86.0 0 0,1 -30.038265399797805,32.042727171017184" fill="none" id="id113" stroke="none" /><text fill="#e1ed5e" style="font-size:6.75px; font-family:Arial;" text-anchor="middle"><textPath startOffset="22.206326154141568" xlink:href="#id113">May</textPath></text><path d="M 118.48025628344425 109.97397251340804 l 2.3818031723864466 1.2854821388495912 a23.706556979132614,23.706556979132614 0 0,0 -0.1969039422782231,0.35743784985122173 l -2.359322820656714 -1.326290507098618" fill="#ff1e03" stroke="none" /><path d="M 117.14729908036423 112.12312394758627 l 16.525246109800747 11.683333096049713 a41.23818250789174,41.23818250789174 0 0,0 -0.4147779748271275,0.5760903295280204 l -16.321688342598016 -11.966057031028866" fill="#faff18" stroke="none" /><path d="M 116.71984013943494 112.70617746262583 l 30.131050850757482 22.897974864134458 a58.844385029347045,58.844385029347045 0 0,0 -0.6198084196898437,0.8011859334649044 l -29.73243561384957 -23.413238791712615" fill="#3aff2e" stroke="none" /><path d="M 116.27256486870786 113.27417163493432 l 11.811932111681525 9.635457929079573 a36.24348351637629,36.24348351637629 0 0,0 -0.39851263436779566,0.480034140145842 l -11.644323477420187 -9.837353326339185" fill="#ffc612" stroke="none" /><path d="M 116.0416608686014 113.55231037782055 l 2.910002253721607 2.4584270958990104 a24.80945887266358,24.80945887266358 0 0,0 -0.2784064198494703,0.32384956354320515 l -2.867253324301358 -2.5081537586037435" fill="#ff2d04" stroke="none" /><path d="M 115.32070863581623 114.36230785411682 l 14.923938901872155 13.990358409638837 a41.45615019442723,41.45615019442723 0 0,0 -0.4925256132647267,0.5164111364166132 l -14.680906737228465 -14.245176662637958" fill="#f7ff18" stroke="none" /><path d="M 115.07121518719521 114.62390073753431 l 2.7795414043729 2.6970444711021795 a24.87297034557794,24.87297034557794 0 0,0 -0.3007963810464368,0.3047051459208075 l -2.7327043982709274 -2.744490111003652" fill="#ff2e04" stroke="none" /><path d="M 114.29624159901734 115.38237550388516 l 2.6310700197907564 2.8309613223252916 a24.864824893516328,24.864824893516328 0 0,0 -0.3160206174527164,0.28867734126653705 l -2.581949852871176 -2.875831430178412" fill="#ff2e04" stroke="none" /><line stroke="#e1ed5e" stroke-width="0.3" x1="143.8653032363475" x2="146.44561519142675" y1="172.8068346515853" y2="177.08958963109032" /><path d="M 144.38136562736335 173.6633856474863 a86.0,86.0 0 0,1 -40.68145358897372,12.25698825130547" fill="none" id="id114" stroke="none" /><text fill="#e1ed5e" style="font-size:6.75px; font-family:Arial;" text-anchor="middle"><textPath startOffset="21.466115282336833" xlink:href="#id114">June</textPath></text><line stroke="#e1ed5e" stroke-width="0.3" x1="102.19456741930631" x2="102.32365962044197" y1="184.97166512339345" y2="189.96999836594603" /><path d="M 102.22038585953345 185.97133177190398 a86.0,86.0 0 0,1 -42.740103519485714,-10.115201625700543" fill="none" id="id115" stroke="none" /><text fill="#e1ed5e" style="font-size:6.75px; font-family:Arial;" text-anchor="middle"><textPath startOffset="22.20632615414155" xlink:href="#id115">July</textPath></text><line stroke="#e1ed5e" stroke-width="0.3" x1="58.666819895761336" x2="56.23545636021788" y1="174.27360380694188" y2="178.64263932499728" /><path d="M 58.180547188652646 175.14741091055294 a86.0,86.0 0 0,1 -31.652253787137756,-30.449443065178592" fill="none" id="id116" stroke="none" /><text fill="#e1ed5e" style="font-size:6.75px; font-family:Arial;" text-anchor="middle"><textPath startOffset="22.20632615414155" xlink:href="#id116">August</textPath></text><line stroke="#e1ed5e" stroke-width="0.3" x1="26.63291911575756" x2="22.317208475507996" y1="142.92168965132927" y2="145.44649492493687" /><path d="M 25.769776987707644 143.4266507060508 a86.0,86.0 0 0,1 -11.730757126820373,-40.83630448921669" fill="none" id="id117" stroke="none" /><text fill="#e1ed5e" style="font-size:6.75px; font-family:Arial;" text-anchor="middle"><textPath startOffset="21.46611528233685" xlink:href="#id117">September</textPath></text><line stroke="#e1ed5e" stroke-width="0.3" x1="15.007084014347285" x2="10.007500721073583" y1="101.09737516637583" y2="101.16192664675087" /><path d="M 14.007167355692545 101.11028546245083 a86.0,86.0 0 0,1 10.666146001902534,-42.60595125391555" fill="none" id="id118" stroke="none" /><text fill="#e1ed5e" style="font-size:6.75px; font-family:Arial;" text-anchor="middle"><textPath startOffset="22.20632615414155" xlink:href="#id118">October</textPath></text><line stroke="#e1ed5e" stroke-width="0.3" x1="26.266209847984243" x2="21.928928074336255" y1="57.711370442889674" y2="55.22380399835377" /><path d="M 25.398753493254645 57.213857153982495 a86.0,86.0 0 0,1 29.58750427330803,-30.492523968695096" fill="none" id="id119" stroke="none" /><text fill="#e1ed5e" style="font-size:6.75px; font-family:Arial;" text-anchor="middle"><textPath startOffset="21.46611528233685" xlink:href="#id119">November</textPath></text><line stroke="#e1ed5e" stroke-width="0.3" x1="56.762969772571076" x2="54.21961505331055" y1="26.818313649435495" y2="22.513508569990535" /><path d="M 56.25429882871897 25.957352633546506 a86.0,86.0 0 0,1 42.265352541879196,-11.944610805530505" fill="none" id="id120" stroke="none" /><text fill="#e1ed5e" style="font-size:6.75px; font-family:Arial;" text-anchor="middle"><textPath startOffset="22.20632615414155" xlink:href="#id120">December</textPath></text></svg>